{
  "accessors": [
    {
      "bufferView": 1,
      "componentType": 5126,
      "count": 15984,
      "max": [
        0.16425423324108124,
        0.15575933456420898,
        0.12801414728164673
      ],
      "min": [
        -0.12924562394618988,
        -0.1843917965888977,
        -0.4001585841178894
      ],
      "type": "VEC3"
    },
    {
      "bufferView": 1,
      "byteOffset": 191808,
      "componentType": 5126,
      "count": 15984,
      "max": [
        0.9996013045310974,
        0.9997798800468445,
        0.9999868869781494
      ],
      "min": [
        -0.9999309182167053,
        -0.9997517466545105,
        -0.999233603477478
      ],
      "type": "VEC3"
    },
    {
      "bufferView": 0,
      "componentType": 5125,
      "count": 58512,
      "type": "SCALAR"
    }
  ],
  "asset": {
    "extras": {
      "author": "Marina (https://sketchfab.com/marina.chan)",
      "license": "CC-BY-4.0 (http://creativecommons.org/licenses/by/4.0/)",
      "source": "https://sketchfab.com/3d-models/crystalline-6ba44a331a234847ab2c1f99bd1ec958",
      "title": "Crystalline"
    },
    "generator": "Sketchfab-13.66.0",
    "version": "2.0"
  },
  "bufferViews": [
    {
      "buffer": 0,
      "byteLength": 234048,
      "name": "floatBufferViews",
      "target": 34963
    },
    {
      "buffer": 0,
      "byteLength": 383616,
      "byteOffset": 234048,
      "byteStride": 12,
      "name": "floatBufferViews",
      "target": 34962
    }
  ],
  "buffers": [
    {
      "byteLength": 617664,
      "uri": "scene.bin"
    }
  ],
  "extensionsRequired": [
    "KHR_materials_pbrSpecularGlossiness"
  ],
  "extensionsUsed": [
    "KHR_materials_pbrSpecularGlossiness"
  ],
  "materials": [
    {
      "doubleSided": true,
      "extensions": {
        "KHR_materials_pbrSpecularGlossiness": {
          "diffuseFactor": [
            0.49371841996970933,
            0.6877530229442783,
            0.855605185835103,
            1.0
          ],
          "glossinessFactor": 0.29907003751466843,
          "specularFactor": [
            0.8163713551730142,
            0.6281055094861525,
            1.0
          ]
        }
      },
      "name": "material_0"
    }
  ],
  "meshes": [
    {
      "name": "Object_0",
      "primitives": [
        {
          "attributes": {
            "NORMAL": 1,
            "POSITION": 0
          },
          "indices": 2,
          "material": 0,
          "mode": 4
        }
      ]
    }
  ],
  "nodes": [
    {
      "children": [
        1
      ],
      "matrix": [
        -1.0,
        -1.60812262295773e-16,
        2.8327693431939985e-16,
        0.0,
        2.832769343193999e-16,
        -6.123234262925839e-17,
        1.0,
        0.0,
        -1.6081226229577292e-16,
        1.0,
        6.123234262925839e-17,
        0.0,
        0.0,
        0.0,
        0.0,
        1.0
      ],
      "name": "Sketchfab_model"
    },
    {
      "children": [
        2
      ],
      "name": "decimated crystalline.OBJ.cleaner.materialmerger.gles"
    },
    {
      "mesh": 0,
      "name": "Object_2"
    }
  ],
  "scene": 0,
  "scenes": [
    {
      "name": "Sketchfab_Scene",
      "nodes": [
        0
      ]
    }
  ]
}
